<svg id="OBJECTS" xmlns="http://www.w3.org/2000/svg" viewBox="0 0 446.92 18.44"><defs><style>.cls-1{fill:#69533c;}.cls-2{fill:none;stroke:#69533c;stroke-miterlimit:10;stroke-width:1.5px;}</style></defs><title>border-cut</title><polygon class="cls-1" points="0 17.69 55.87 16.93 111.73 16.94 223.46 16.94 335.19 16.94 391.05 16.94 446.92 17.69 391.05 18.44 335.19 18.44 223.46 18.44 111.73 18.44 55.87 18.44 0 17.69"/><path class="cls-1" d="M73.47,5.25c14.71-.31,29.42-.51,44.13-.75H382.4l44.13.75L382.4,6H117.6C102.89,5.76,88.18,5.56,73.47,5.25Z" transform="translate(-26.54 -4.5)"/><path class="cls-2" d="M255.15,13.72c0,2.84-2.18,5.63-5.15,5.15-2.81-.46-5.15-2.31-5.15-5.15s2.37-4.55,5.15-5.15S255.15,10.87,255.15,13.72Z" transform="translate(-26.54 -4.5)"/></svg>