<svg id="圖層_1" data-name="圖層 1" xmlns="http://www.w3.org/2000/svg" viewBox="0 0 221.36 221.08"><defs><style>.cls-1{opacity:0.8;}.cls-2{fill:#fff;}</style></defs><title>DylanCafe-LogoMix</title><g class="cls-1"><path class="cls-2" d="M213.06,77.44a65.28,65.28,0,0,0-4.23-18.37A66.7,66.7,0,0,0,205,50.82c-.78-1.3-1.49-2.63-2.36-3.88l-1.26-1.89L200,43.22a83.16,83.16,0,0,0-19.62-19.17A68.84,68.84,0,0,0,154.18,13a70.71,70.71,0,0,0-29,.42,71.17,71.17,0,0,0-28.5,12.24A72,72,0,0,0,74.9,50.85c-.3.54-.78,1.32-1.23,2.23s-.92,1.93-1.32,2.86c-.71,1.91-1.12,3.51-.46,3.39A73.28,73.28,0,0,0,66.5,91.47a67.41,67.41,0,0,0,9.38,30.85,113.32,113.32,0,0,0,7.53,11.58A57.83,57.83,0,0,0,93,144c2.94,2.29,5.94,4.46,9.06,6.44a95,95,0,0,0,9.7,5.31,77.9,77.9,0,0,0,10.33,3.89,63.22,63.22,0,0,0,10.81,2.13c1,.08,2.65,0,4.22-.06s3.09-.19,3.94-.11a60.8,60.8,0,0,0,28.54-5.21,76.3,76.3,0,0,0,23-16,85.35,85.35,0,0,0,12.35-15.53c-.05-.78.83-2.18,1.65-4,.62-1.15,2-3.6,3.5-6.78a83.93,83.93,0,0,0,4.17-11.17c2.47-8,2.92-16.19,3.28-17.55a11.41,11.41,0,0,1,.06,2.14A62.68,62.68,0,0,1,217.2,94a75.15,75.15,0,0,1-4.68,19.64,73.32,73.32,0,0,1-4.63,9.86c-.81,1.54-1.74,2.94-2.57,4.3s-1.73,2.57-2.53,3.69c-3.26,4.48-5.79,7.08-5.49,7,.62-.32,7.58-7.63,12.3-16.73a77.43,77.43,0,0,0,5.52-13.23c1.2-3.92,1.8-6.91,2-7.73a77.27,77.27,0,0,1-7.76,23.28,78.72,78.72,0,0,1-11.52,16.55,79.92,79.92,0,0,1-22.08,17.12c-1.51.76-2.88,1.5-4.16,2s-2.41,1.11-3.45,1.49-1.93.78-2.72,1.07l-2,.7c-2.19.78-2.48.87-1.27.59l2.83-.83c1.27-.37,2.81-1,4.6-1.64a80.07,80.07,0,0,0,12.53-6.39,77.54,77.54,0,0,0,24.52-24.51c4-5.71,8.45-14.84,11.33-27.94a90.4,90.4,0,0,1-3.68,15.28,64.17,64.17,0,0,1-5.17,11.67,93.38,93.38,0,0,1-5.79,8.69c-1.56,2.13-2.87,3.69-4.25,5.29l-2.28,2.42c-.85.83-1.81,1.7-2.91,2.71a74.21,74.21,0,0,1-9.76,7.05,99.53,99.53,0,0,1-13.3,6.7A87.12,87.12,0,0,1,154.5,167a82.81,82.81,0,0,1-16.63,1.49,79.58,79.58,0,0,1-13.65-1.33,100.65,100.65,0,0,0,17.37.15,138.46,138.46,0,0,0,19.46-3.22c-6,1.17-10.71,1.73-14.82,2.14l-3,.24c-1,.1-1.9.17-2.82.2l-2.72.16-2.67.06c-1.79.08-3.58,0-5.48-.09-.95-.05-1.91-.16-2.92-.26l-1.53-.16-1.58-.26a59.22,59.22,0,0,1-15.24-4.64c-2.22-1-4.81-2.09-7.54-3.45-1.23-.77-2.43-1.52-3.63-2.39l-1.87-1.31-2-1.51a88.06,88.06,0,0,1-21.37-22,76,76,0,0,1-11.79-28.09,10.55,10.55,0,0,1,.28,2.4,10,10,0,0,0,.27,2.45,62.5,62.5,0,0,0,4.19,12.73,71.49,71.49,0,0,0,6.36,11.34A90.94,90.94,0,0,0,79.48,142a104.59,104.59,0,0,0,10.25,9.49A33.84,33.84,0,0,0,95,155l3,1.58c1,.52,1.92,1,2.77,1.47,3.48,1.94,6.81,3.68,10.2,5.17a79.05,79.05,0,0,0,10.4,3.9A73.87,73.87,0,0,1,99,158.6a85.13,85.13,0,0,1-19.46-15.44c-1.19-1.19-2.5-2.52-3.8-3.74S73.28,137,72.41,136a80.71,80.71,0,0,0,7.26,8.76c1.28,1.41,2.69,2.7,4.06,4,.7.65,1.43,1.26,2.15,1.89s1.45,1.25,2.21,1.83a78,78,0,0,0,18.22,10.62,85.79,85.79,0,0,0,10.38,3.55c1.78.42,3.53.92,5.32,1.23l2.66.51,2.66.38a94.43,94.43,0,0,0,20.21.58A141.67,141.67,0,0,0,164.07,167l2.12-.78a5,5,0,0,0,1.1-.21c3.51-1.14,7.62-2.69,11.4-4.09a87.29,87.29,0,0,1-9.5,3.77c-12.3,5.22-27.18,6.92-41.74,4.54A89.11,89.11,0,0,1,87.2,152.41a56.74,56.74,0,0,1-8.54-8.28c-2.8-3.29-5.39-6.74-7.31-9.35a76.71,76.71,0,0,1-12.66-26,79.75,79.75,0,0,1-2.51-14.42,86,86,0,0,1,6.46-39.24,80,80,0,0,1,5.83-11.31c1.08-1.82,2.31-3.54,3.51-5.28s2.53-3.37,3.92-4.95A82.68,82.68,0,0,1,117.28,7.11a80.67,80.67,0,0,1,47.57,1.74,77.8,77.8,0,0,1,36.92,27.37c.88,1.11,1.81,2.19,2.62,3.33-.26-.58-.54-1.12-.83-1.66.77,1.09,1.4,2.29,2.09,3.41a65.91,65.91,0,0,1,5.76,10.11,59.3,59.3,0,0,1,3.64,10.84c.26,1.53-.12.22-.8-1.7-.17-.48-.35-1-.53-1.54l-.64-1.54a14.62,14.62,0,0,0-1.17-2.38c.33.79.57,1.61.79,2.21l.35,1-.7-.42a7.05,7.05,0,0,1,.67,2.92,76.6,76.6,0,0,0-5-11.34,77.33,77.33,0,0,0-6.83-10.37,76.38,76.38,0,0,0-18.28-16.85,23,23,0,0,0,3.32,3c1.35,1.13,2.79,2.22,3.63,3A57.12,57.12,0,0,1,201,39.7a56.49,56.49,0,0,1,5.72,8.8c.87,1.53,1.55,3.16,2.29,4.74s1.34,3.24,1.87,4.91,1,3.33,1.51,5c.22.84.39,1.68.59,2.52l.29,1.25.23,1.26a86.89,86.89,0,0,1,1.3,10c0,1.23,0,2.44-.06,3.64s-.19,2.39-.28,3.56c-.1.8-.22,1-.35.73a3.36,3.36,0,0,1-.18-.7c-.07-.3-.14-.68-.2-1.12-.14-.87-.21-2-.35-3.17S213.15,78.64,213.06,77.44ZM62.78,62.52A73.64,73.64,0,0,1,69.31,49.1c.43-.77.85-1.55,1.27-2.32L72,44.53c.56-.94,1.2-1.87,1.82-2.85l.93-1.5c.33-.5.66-1,1-1.5A79.51,79.51,0,0,1,96.4,20a67.55,67.55,0,0,0-12,8.28,65,65,0,0,0-11,12.34,74.24,74.24,0,0,1,33.32-27.3,78.2,78.2,0,0,1,19.74-5.23,82.49,82.49,0,0,1,20.23,0,78.42,78.42,0,0,1,12.19,2.07,76.3,76.3,0,0,1,11.88,4,83.55,83.55,0,0,1,15.4,8.27A78.18,78.18,0,0,0,162,9.77a80.09,80.09,0,0,0-54.65,2.48A82.19,82.19,0,0,0,73.17,136.5C58.23,114.48,54.36,86.83,62.78,62.52Zm-1.39,9.19a79.35,79.35,0,0,0,.32,29.91A81.62,81.62,0,0,0,68.11,121,79.4,79.4,0,0,0,79,137.83a74.4,74.4,0,0,0,13.43,12.29,61.45,61.45,0,0,0,13.16,7.16A81.56,81.56,0,0,1,90.52,148a80.62,80.62,0,0,1-12.91-12.75,78.9,78.9,0,0,1-15.89-33.59c.32,1.48.61,2.8.87,4s.59,2.16.82,3c.45,1.72.9,2.82,1.08,3.42.4,1.19.12.3-.71-2.27A87.89,87.89,0,0,1,61,97.05a84.26,84.26,0,0,1-.17-21c0-.37.07-1,.16-1.69A21.09,21.09,0,0,1,61.39,71.71Z" transform="translate(-33.01 -2.46)"/><path class="cls-2" d="M174.44,12.17A79.1,79.1,0,0,1,199.29,33,57.37,57.37,0,0,0,191.54,23l-1.82-1.73-1.95-1.65c-1.29-1.13-2.73-2.1-4.14-3.16a74.6,74.6,0,0,0-9.25-5.4c-.8-.42-1.63-.79-2.46-1.15s-1.66-.75-2.5-1.08c-1.7-.64-3.39-1.34-5.13-1.87a93.08,93.08,0,0,0-10.47-2.81,80.34,80.34,0,0,0-31.26-.27,81.38,81.38,0,0,0-30,12.26,83.69,83.69,0,0,0-36,55.24c-.27,1.11-.49,2.92-.77,4.91-.11,1-.17,2-.24,3.09,0,.52,0,1-.08,1.53s0,1,0,1.47A84.24,84.24,0,0,1,98.05,13.8a83.7,83.7,0,0,1,18.67-7.69A81.46,81.46,0,0,1,136.48,3.3a78.78,78.78,0,0,1,19.63,2.07A76.5,76.5,0,0,1,174.44,12.17Z" transform="translate(-33.01 -2.46)"/><path class="cls-2" d="M82.22,149.86a96.56,96.56,0,0,0,10.16,7.77,107.33,107.33,0,0,0,10.82,6.23c-3.22-1.87-6.92-4.22-10.54-6.8a98.89,98.89,0,0,1-10-8.29,85.4,85.4,0,0,1-19.9-27.36A81,81,0,0,0,82.22,149.86Z" transform="translate(-33.01 -2.46)"/><path class="cls-2" d="M55.55,82.36c0,1.16-.14,2.31-.15,3.48v3.51a81.43,81.43,0,0,0,7.33,32.07A86.23,86.23,0,0,1,56.47,87c-.27,0-.48-.48-.66-1.3A22.73,22.73,0,0,1,55.55,82.36Z" transform="translate(-33.01 -2.46)"/></g><g class="cls-1"><path class="cls-2" d="M213.06,77.44a65.28,65.28,0,0,0-4.23-18.37A66.7,66.7,0,0,0,205,50.82c-.78-1.3-1.49-2.63-2.36-3.88l-1.26-1.89L200,43.22a83.16,83.16,0,0,0-19.62-19.17A68.84,68.84,0,0,0,154.18,13a70.71,70.71,0,0,0-29,.42,71.17,71.17,0,0,0-28.5,12.24A72,72,0,0,0,74.9,50.85c-.3.54-.78,1.32-1.23,2.23s-.92,1.93-1.32,2.86c-.71,1.91-1.12,3.51-.46,3.39A73.28,73.28,0,0,0,66.5,91.47a67.41,67.41,0,0,0,9.38,30.85,113.32,113.32,0,0,0,7.53,11.58A57.83,57.83,0,0,0,93,144c2.94,2.29,5.94,4.46,9.06,6.44a95,95,0,0,0,9.7,5.31,77.9,77.9,0,0,0,10.33,3.89,63.22,63.22,0,0,0,10.81,2.13c1,.08,2.65,0,4.22-.06s3.09-.19,3.94-.11a60.8,60.8,0,0,0,28.54-5.21,76.3,76.3,0,0,0,23-16,85.35,85.35,0,0,0,12.35-15.53c-.05-.78.83-2.18,1.65-4,.62-1.15,2-3.6,3.5-6.78a83.93,83.93,0,0,0,4.17-11.17c2.47-8,2.92-16.19,3.28-17.55a11.41,11.41,0,0,1,.06,2.14A62.68,62.68,0,0,1,217.2,94a75.15,75.15,0,0,1-4.68,19.64,73.32,73.32,0,0,1-4.63,9.86c-.81,1.54-1.74,2.94-2.57,4.3s-1.73,2.57-2.53,3.69c-3.26,4.48-5.79,7.08-5.49,7,.62-.32,7.58-7.63,12.3-16.73a77.43,77.43,0,0,0,5.52-13.23c1.2-3.92,1.8-6.91,2-7.73a77.27,77.27,0,0,1-7.76,23.28,78.72,78.72,0,0,1-11.52,16.55,79.92,79.92,0,0,1-22.08,17.12c-1.51.76-2.88,1.5-4.16,2s-2.41,1.11-3.45,1.49-1.93.78-2.72,1.07l-2,.7c-2.19.78-2.48.87-1.27.59l2.83-.83c1.27-.37,2.81-1,4.6-1.64a80.07,80.07,0,0,0,12.53-6.39,77.54,77.54,0,0,0,24.52-24.51c4-5.71,8.45-14.84,11.33-27.94a90.4,90.4,0,0,1-3.68,15.28,64.17,64.17,0,0,1-5.17,11.67,93.38,93.38,0,0,1-5.79,8.69c-1.56,2.13-2.87,3.69-4.25,5.29l-2.28,2.42c-.85.83-1.81,1.7-2.91,2.71a74.21,74.21,0,0,1-9.76,7.05,99.53,99.53,0,0,1-13.3,6.7A87.12,87.12,0,0,1,154.5,167a82.81,82.81,0,0,1-16.63,1.49,79.58,79.58,0,0,1-13.65-1.33,100.65,100.65,0,0,0,17.37.15,138.46,138.46,0,0,0,19.46-3.22c-6,1.17-10.71,1.73-14.82,2.14l-3,.24c-1,.1-1.9.17-2.82.2l-2.72.16-2.67.06c-1.79.08-3.58,0-5.48-.09-.95-.05-1.91-.16-2.92-.26l-1.53-.16-1.58-.26a59.22,59.22,0,0,1-15.24-4.64c-2.22-1-4.81-2.09-7.54-3.45-1.23-.77-2.43-1.52-3.63-2.39l-1.87-1.31-2-1.51a88.06,88.06,0,0,1-21.37-22,76,76,0,0,1-11.79-28.09,10.55,10.55,0,0,1,.28,2.4,10,10,0,0,0,.27,2.45,62.5,62.5,0,0,0,4.19,12.73,71.49,71.49,0,0,0,6.36,11.34A90.94,90.94,0,0,0,79.48,142a104.59,104.59,0,0,0,10.25,9.49A33.84,33.84,0,0,0,95,155l3,1.58c1,.52,1.92,1,2.77,1.47,3.48,1.94,6.81,3.68,10.2,5.17a79.05,79.05,0,0,0,10.4,3.9A73.87,73.87,0,0,1,99,158.6a85.13,85.13,0,0,1-19.46-15.44c-1.19-1.19-2.5-2.52-3.8-3.74S73.28,137,72.41,136a80.71,80.71,0,0,0,7.26,8.76c1.28,1.41,2.69,2.7,4.06,4,.7.65,1.43,1.26,2.15,1.89s1.45,1.25,2.21,1.83a78,78,0,0,0,18.22,10.62,85.79,85.79,0,0,0,10.38,3.55c1.78.42,3.53.92,5.32,1.23l2.66.51,2.66.38a94.43,94.43,0,0,0,20.21.58A141.67,141.67,0,0,0,164.07,167l2.12-.78a5,5,0,0,0,1.1-.21c3.51-1.14,7.62-2.69,11.4-4.09a87.29,87.29,0,0,1-9.5,3.77c-12.3,5.22-27.18,6.92-41.74,4.54A89.11,89.11,0,0,1,87.2,152.41a56.74,56.74,0,0,1-8.54-8.28c-2.8-3.29-5.39-6.74-7.31-9.35a76.71,76.71,0,0,1-12.66-26,79.75,79.75,0,0,1-2.51-14.42,86,86,0,0,1,6.46-39.24,80,80,0,0,1,5.83-11.31c1.08-1.82,2.31-3.54,3.51-5.28s2.53-3.37,3.92-4.95A82.68,82.68,0,0,1,117.28,7.11a80.67,80.67,0,0,1,47.57,1.74,77.8,77.8,0,0,1,36.92,27.37c.88,1.11,1.81,2.19,2.62,3.33-.26-.58-.54-1.12-.83-1.66.77,1.09,1.4,2.29,2.09,3.41a65.91,65.91,0,0,1,5.76,10.11,59.3,59.3,0,0,1,3.64,10.84c.26,1.53-.12.22-.8-1.7-.17-.48-.35-1-.53-1.54l-.64-1.54a14.62,14.62,0,0,0-1.17-2.38c.33.79.57,1.61.79,2.21l.35,1-.7-.42a7.05,7.05,0,0,1,.67,2.92,76.6,76.6,0,0,0-5-11.34,77.33,77.33,0,0,0-6.83-10.37,76.38,76.38,0,0,0-18.28-16.85,23,23,0,0,0,3.32,3c1.35,1.13,2.79,2.22,3.63,3A57.12,57.12,0,0,1,201,39.7a56.49,56.49,0,0,1,5.72,8.8c.87,1.53,1.55,3.16,2.29,4.74s1.34,3.24,1.87,4.91,1,3.33,1.51,5c.22.84.39,1.68.59,2.52l.29,1.25.23,1.26a86.89,86.89,0,0,1,1.3,10c0,1.23,0,2.44-.06,3.64s-.19,2.39-.28,3.56c-.1.8-.22,1-.35.73a3.36,3.36,0,0,1-.18-.7c-.07-.3-.14-.68-.2-1.12-.14-.87-.21-2-.35-3.17S213.15,78.64,213.06,77.44ZM62.78,62.52A73.64,73.64,0,0,1,69.31,49.1c.43-.77.85-1.55,1.27-2.32L72,44.53c.56-.94,1.2-1.87,1.82-2.85l.93-1.5c.33-.5.66-1,1-1.5A79.51,79.51,0,0,1,96.4,20a67.55,67.55,0,0,0-12,8.28,65,65,0,0,0-11,12.34,74.24,74.24,0,0,1,33.32-27.3,78.2,78.2,0,0,1,19.74-5.23,82.49,82.49,0,0,1,20.23,0,78.42,78.42,0,0,1,12.19,2.07,76.3,76.3,0,0,1,11.88,4,83.55,83.55,0,0,1,15.4,8.27A78.18,78.18,0,0,0,162,9.77a80.09,80.09,0,0,0-54.65,2.48A82.19,82.19,0,0,0,73.17,136.5C58.23,114.48,54.36,86.83,62.78,62.52Zm-1.39,9.19a79.35,79.35,0,0,0,.32,29.91A81.62,81.62,0,0,0,68.11,121,79.4,79.4,0,0,0,79,137.83a74.4,74.4,0,0,0,13.43,12.29,61.45,61.45,0,0,0,13.16,7.16A81.56,81.56,0,0,1,90.52,148a80.62,80.62,0,0,1-12.91-12.75,78.9,78.9,0,0,1-15.89-33.59c.32,1.48.61,2.8.87,4s.59,2.16.82,3c.45,1.72.9,2.82,1.08,3.42.4,1.19.12.3-.71-2.27A87.89,87.89,0,0,1,61,97.05a84.26,84.26,0,0,1-.17-21c0-.37.07-1,.16-1.69A21.09,21.09,0,0,1,61.39,71.71Z" transform="translate(-33.01 -2.46)"/><path class="cls-2" d="M174.44,12.17A79.1,79.1,0,0,1,199.29,33,57.37,57.37,0,0,0,191.54,23l-1.82-1.73-1.95-1.65c-1.29-1.13-2.73-2.1-4.14-3.16a74.6,74.6,0,0,0-9.25-5.4c-.8-.42-1.63-.79-2.46-1.15s-1.66-.75-2.5-1.08c-1.7-.64-3.39-1.34-5.13-1.87a93.08,93.08,0,0,0-10.47-2.81,80.34,80.34,0,0,0-31.26-.27,81.38,81.38,0,0,0-30,12.26,83.69,83.69,0,0,0-36,55.24c-.27,1.11-.49,2.92-.77,4.91-.11,1-.17,2-.24,3.09,0,.52,0,1-.08,1.53s0,1,0,1.47A84.24,84.24,0,0,1,98.05,13.8a83.7,83.7,0,0,1,18.67-7.69A81.46,81.46,0,0,1,136.48,3.3a78.78,78.78,0,0,1,19.63,2.07A76.5,76.5,0,0,1,174.44,12.17Z" transform="translate(-33.01 -2.46)"/><path class="cls-2" d="M82.22,149.86a96.56,96.56,0,0,0,10.16,7.77,107.33,107.33,0,0,0,10.82,6.23c-3.22-1.87-6.92-4.22-10.54-6.8a98.89,98.89,0,0,1-10-8.29,85.4,85.4,0,0,1-19.9-27.36A81,81,0,0,0,82.22,149.86Z" transform="translate(-33.01 -2.46)"/><path class="cls-2" d="M55.55,82.36c0,1.16-.14,2.31-.15,3.48v3.51a81.43,81.43,0,0,0,7.33,32.07A86.23,86.23,0,0,1,56.47,87c-.27,0-.48-.48-.66-1.3A22.73,22.73,0,0,1,55.55,82.36Z" transform="translate(-33.01 -2.46)"/></g><path class="cls-2" d="M194.27,123.64a3.89,3.89,0,0,0-3.09-1.76,3.62,3.62,0,0,0-2.64.86,3.52,3.52,0,0,0-1.09,2.6,9.19,9.19,0,0,0,.68,3.2,9.56,9.56,0,0,1,.74,3.32,4.38,4.38,0,0,1-1.77,3.26,5.81,5.81,0,0,1-4,1.31,42.46,42.46,0,0,1-8.36-1.75l-2.2-.59-21.32-33.71a48.62,48.62,0,0,0,15.94-13.66,39.26,39.26,0,0,0,8.56-24.46,29.63,29.63,0,0,0-.81-7,42.55,42.55,0,0,1,5.47,3.25q3.71,2.6,6.29,2.6A5.35,5.35,0,0,0,190,60a3.4,3.4,0,0,0,1.42-2.73q0-2.86-4.66-5.53a22.76,22.76,0,0,0-11.47-2.67c-.91,0-1.81,0-2.72.1a32.42,32.42,0,0,0-9.22-10.71q-12.3-9.48-33-9.48A77.88,77.88,0,0,0,108,32.08l0,0-.59.2c-1.06.33-2.11.67-3.15,1h0l-.87.29L108.66,42c-1.12.42-2.23.86-3.31,1.34Q91.6,49.44,83.88,59.77T76.17,81.15q0,6.61,5.13,12.92,3.78,4.5,7.78,4.5a4.82,4.82,0,0,0,3.21-1.19,3.52,3.52,0,0,0,1.4-2.73A3.11,3.11,0,0,0,93,92.59a10.33,10.33,0,0,0-3.12-2q-8.42-3.85-8.42-12.09,0-8.42,6.87-17.33A48.51,48.51,0,0,1,107,46.88c1.25-.57,2.51-1.07,3.78-1.55l8,12.68-5.86,20.43-5.18,16.78q-3.75,9.9-5.93,12.86a6.75,6.75,0,0,1-2.89,2.38c-1.13.47-4,.81-8.6,1l-1.73,3.15q6.91-.19,10.29-.19,7.29,0,15.4.51,9.61.65,13.52.64c.67,0,1.34,0,2,0a70.77,70.77,0,0,1-4.13,10.32,15.29,15.29,0,0,1-5.52,6.16q-3.06,1.74-12.12,3.07l-1,3.6a195.51,195.51,0,0,1,22.43-1.13q8.63,0,36.58,1.93l1,.07,1.7.22q5.91.78,9.69.93,7.6.3,12.21-3.43a12,12,0,0,0,4.81-9.11A7,7,0,0,0,194.27,123.64ZM123,55.81l.19-.68a112.64,112.64,0,0,1,4.72-13.86c17.64-1.06,23.19,9.69,24.8,14.66a47.54,47.54,0,0,0-15.75,17c-.46.82-.94,1.74-1.42,2.72Zm24,46.84,1.83,2.9c-.88.51-1.77,1-2.7,1.46l-.7.31C145.92,105.85,146.45,104.28,147,102.65ZM161.77,65A36.57,36.57,0,0,1,156,85a37,37,0,0,1-8.6,9.49l-4-6.28a140.69,140.69,0,0,1,6-15.39,54.28,54.28,0,0,1,8-12.16A32.31,32.31,0,0,1,161,57.29,36.22,36.22,0,0,1,161.77,65ZM126.46,33.2q15.78,0,25.54,8.71a28.12,28.12,0,0,1,7.45,10.47c-1.49.63-3,1.37-4.47,2.18-4.23-12.3-16.07-15.4-26.11-15.63h0a65.47,65.47,0,0,0-15.52,1.61l-3.23-5.11A60.64,60.64,0,0,1,126.46,33.2Zm4.76,78a64.38,64.38,0,0,1-8,.5,69.23,69.23,0,0,1-11.42-1.09q6.69-9.9,12-29.32l3-10.68,11.48,18.17.4.65q-3,7.26-6.28,18.1C132,108.86,131.59,110.08,131.22,111.24Zm7.1,14.26a110.65,110.65,0,0,0,4.86-11.82,71.72,71.72,0,0,0,8.84-2.81l.13-.05,13.6,21.52c-2.18-.35-3.91-.59-5.17-.73a76.31,76.31,0,0,0-8.45-.43,125.36,125.36,0,0,0-19.67,2.07A27,27,0,0,0,138.32,125.5Z" transform="translate(-33.01 -2.46)"/><path class="cls-2" d="M63.27,205.18a26.58,26.58,0,0,1-9.76,1.55c-10.43,0-18.26-5.78-18.26-16.42,0-10.16,7.84-17,19.3-17a22.48,22.48,0,0,1,8.79,1.44l-1.16,3.42a19.46,19.46,0,0,0-7.46-1.35c-8.67,0-14.43,4.86-14.43,13.39,0,7.94,5.22,13.05,14.21,13.05a21.59,21.59,0,0,0,7.79-1.35Z" transform="translate(-33.01 -2.46)"/><path class="cls-2" d="M81,195.76c0,7.67-6,11-11.76,11-6.39,0-11.32-4.11-11.32-10.67,0-6.94,5.17-11,11.71-11C76.36,185.09,81,189.41,81,195.76ZM62.21,196c0,4.54,3,8,7.18,8s7.19-3.38,7.19-8.06c0-3.51-2-8-7.09-8S62.21,192,62.21,196Z" transform="translate(-33.01 -2.46)"/><path class="cls-2" d="M98.75,209V188.43H88.84v34.85H84.59V188.43H81.27v-2.87h3.32v-.69c0-2.91.78-5.44,2.63-7.07a8.76,8.76,0,0,1,6-1.92,8.44,8.44,0,0,1,3.37.73l-.88,2.79a7.12,7.12,0,0,0-2.53-.51c-3.37,0-4.29,2.53-4.29,5.78v.9h9.91v-1c0-2.91.78-5.56,2.78-7.23a8.87,8.87,0,0,1,5.72-1.92,10.83,10.83,0,0,1,3.65.6l-.53,2.91a7.39,7.39,0,0,0-2.78-.47c-3.61,0-4.59,2.82-4.59,6v1.12h5.71v2.86h-5.66v20.61H98.75Z" transform="translate(-33.01 -2.46)"/><path class="cls-2" d="M113.26,196.61c.1,5.1,3.81,7.21,8.1,7.21a17.36,17.36,0,0,0,6.54-1.07l.73,2.7a21.42,21.42,0,0,1-7.86,1.29c-7.27,0-11.61-4.2-11.61-10.46s4.2-11.18,11.08-11.18c7.71,0,9.76,6,9.76,9.77a12.34,12.34,0,0,1-.15,1.75H113.26Zm12.59-2.7c.05-2.4-1.12-6.12-6-6.12-4.34,0-6.24,3.51-6.59,6.12Z" transform="translate(-33.01 -2.46)"/><path class="cls-2" d="M135.57,196.61c.1,5.1,3.81,7.21,8.1,7.21a17.36,17.36,0,0,0,6.54-1.07l.73,2.7a21.42,21.42,0,0,1-7.86,1.29c-7.27,0-11.61-4.2-11.61-10.46s4.2-11.18,11.08-11.18c7.71,0,9.76,6,9.76,9.77a12.34,12.34,0,0,1-.15,1.75H135.57Zm12.59-2.7c.05-2.4-1.12-6.12-6-6.12-4.34,0-6.24,3.51-6.59,6.12Z" transform="translate(-33.01 -2.46)"/><path class="cls-2" d="M188.81,205.35a23.58,23.58,0,0,1-8.69,1.37c-9.27,0-16.25-5.15-16.25-14.61,0-9,7-15.17,17.18-15.17a19.44,19.44,0,0,1,7.82,1.29l-1,3a17.28,17.28,0,0,0-6.64-1.2c-7.71,0-12.84,4.33-12.84,11.92,0,7.07,4.64,11.61,12.64,11.61a18.9,18.9,0,0,0,6.94-1.2Z" transform="translate(-33.01 -2.46)"/><path class="cls-2" d="M201.16,206.29l-.34-2.61h-.15a9.24,9.24,0,0,1-7.22,3.09c-4.78,0-7.23-3-7.23-6,0-5,5.08-7.75,14.21-7.71v-.43c0-1.72-.53-4.81-5.37-4.81a12.91,12.91,0,0,0-6.15,1.55l-1-2.49a16.25,16.25,0,0,1,7.75-1.85c7.23,0,9,4.33,9,8.49v7.75a25.83,25.83,0,0,0,.39,5h-3.91Zm-.63-10.58c-4.69-.09-10,.65-10,4.67,0,2.45,1.85,3.6,4.05,3.6a5.88,5.88,0,0,0,5.72-3.47,3.61,3.61,0,0,0,.24-1.2v-3.6Z" transform="translate(-33.01 -2.46)"/><path class="cls-2" d="M210,217.78l-.17-29.36h-3.32v-2.87h3.32v-1c0-2.91.74-5.57,2.74-7.23a8.91,8.91,0,0,1,5.76-1.93,11.08,11.08,0,0,1,3.65.6l-.59,2.92a7.1,7.1,0,0,0-2.73-.47c-3.66,0-4.59,2.82-4.59,6v1.11h5.71v2.87h-5.71l.17,29.36H210Z" transform="translate(-33.01 -2.46)"/><path class="cls-2" d="M224.29,196.61c.1,5.1,3.81,7.21,8.1,7.21a17.3,17.3,0,0,0,6.53-1.07l.74,2.7a21.42,21.42,0,0,1-7.86,1.29c-7.27,0-11.62-4.2-11.62-10.46s4.21-11.18,11.09-11.18c7.71,0,9.76,6,9.76,9.77a12.34,12.34,0,0,1-.15,1.75H224.29Zm12.59-2.7c0-2.4-1.12-6.12-6-6.12-4.34,0-6.25,3.51-6.59,6.12Z" transform="translate(-33.01 -2.46)"/><polygon class="cls-2" points="195.38 176.76 198.27 176.2 201.88 181.13 200.59 181.39 195.38 176.76"/><rect class="cls-2" y="205.09" width="221.36" height="2.97"/><path class="cls-2" d="M99.37,214.64a5,5,0,0,1,1.67.27,3.73,3.73,0,0,1,1.35.79,4,4,0,0,1,.9,1.33,5,5,0,0,1,.32,1.9,5.14,5.14,0,0,1-.32,1.9,3.45,3.45,0,0,1-.9,1.34A3.73,3.73,0,0,1,101,223a5,5,0,0,1-1.67.26H94v-.28c.26,0,.38-.1.38-.29v-7.42c0-.2-.12-.29-.38-.29v-.29h5.41Zm-.65,7.18a5.82,5.82,0,0,0,1.33-.13,1.94,1.94,0,0,0,1.51-1.36,4.22,4.22,0,0,0,.19-1.4,4.3,4.3,0,0,0-.19-1.4,2.09,2.09,0,0,0-.56-.89,2.22,2.22,0,0,0-1-.46,5.77,5.77,0,0,0-1.33-.14H96.18v5.78Z" transform="translate(-33.01 -2.46)"/><path class="cls-2" d="M105.51,216.62a.63.63,0,0,0-.28-.21.92.92,0,0,0-.31-.07v-.29h2.69v.29a.54.54,0,0,0-.18.06.18.18,0,0,0-.1.15.29.29,0,0,0,.07.18l.14.2,1.65,2.16,1.46-2c.1-.15.16-.25.22-.33a.34.34,0,0,0,.08-.2c0-.09,0-.14-.08-.16a.35.35,0,0,0-.17,0v-.29h2.5v.29a.66.66,0,0,0-.43.23,3.3,3.3,0,0,0-.41.44l-2.5,3.24v2.44c0,.17.1.25.31.25v.28H108v-.28c.2,0,.29-.08.29-.25v-2.51Z" transform="translate(-33.01 -2.46)"/><path class="cls-2" d="M123,223.54c0-.17,0-.26-.15-.28a2.06,2.06,0,0,0-.4,0h-7.77v-.28c.32,0,.49-.1.49-.29v-7.42c0-.2-.17-.29-.49-.29v-.29h2.8v.29c-.3,0-.46.1-.46.29v6.49h5.42a.63.63,0,0,0,.4-.11.37.37,0,0,0,.15-.31h.29v2.24Z" transform="translate(-33.01 -2.46)"/><path class="cls-2" d="M123.82,222.94a.59.59,0,0,0,.32-.19,1.43,1.43,0,0,0,.19-.29l2.43-5.31c.07-.15.13-.27.16-.36a.88.88,0,0,0,.06-.27c0-.07,0-.11,0-.12l-.09-.06v-.29h2.47v.29a.22.22,0,0,1-.11,0s-.06.05-.06.13a.46.46,0,0,0,.08.23,2.56,2.56,0,0,1,.16.33l2.64,5.54a.69.69,0,0,0,.18.22l.21.1v.28H130.1V223a.59.59,0,0,0,.17,0,.19.19,0,0,0,.08-.18.52.52,0,0,0,0-.18,2.07,2.07,0,0,0-.08-.21l-.44-.94h-3.5l-.46.88-.11.24a.43.43,0,0,0,0,.19c0,.08,0,.14.07.16a.75.75,0,0,0,.24,0v.28h-2.19v-.28Zm5.45-2.72-1.33-2.74-1.15,2.74Z" transform="translate(-33.01 -2.46)"/><path class="cls-2" d="M134,222.94c.2,0,.29-.08.29-.25v-6.1c0-.17-.1-.25-.29-.25v-.29h2.4v.29c-.08,0-.11,0-.11.08s.12.2.35.45l3.92,4.14v-4.42c0-.17-.12-.25-.33-.25v-.29h2v.29c-.2,0-.29.08-.29.25v6.1c0,.17.1.25.29.25v.28h-2.12v-.28c.08,0,.11,0,.11-.08s-.05-.12-.15-.24l-.36-.37-4-4.32v4.75c0,.17.11.24.35.24v.29h-2Z" transform="translate(-33.01 -2.46)"/><path class="cls-2" d="M152.51,215.23c0-.2-.12-.29-.36-.29v-.29h2.52v.29a.28.28,0,0,0-.2.08.27.27,0,0,0-.09.22v7.42a.28.28,0,0,0,.09.22.26.26,0,0,0,.2.08v.29h-2.52V223c.24,0,.36-.1.36-.29V219.6h-5.26v3.07a.27.27,0,0,0,.09.22.27.27,0,0,0,.2.08v.29h-2.46V223c.21,0,.31-.1.31-.29v-7.41c0-.2-.1-.29-.31-.29v-.29h2.47V215a.29.29,0,0,0-.2.07.32.32,0,0,0-.09.23v2.78h5.26v-2.83Z" transform="translate(-33.01 -2.46)"/><path class="cls-2" d="M161.2,215.94a5.8,5.8,0,0,1,1.69.24,3.81,3.81,0,0,1,1.38.69,3.34,3.34,0,0,1,.93,1.14,3.95,3.95,0,0,1,0,3.25,3.14,3.14,0,0,1-.93,1.14,3.93,3.93,0,0,1-1.38.66,7.24,7.24,0,0,1-3.38,0,3.93,3.93,0,0,1-1.38-.66,3.34,3.34,0,0,1-.93-1.14,4.05,4.05,0,0,1,0-3.25,3.06,3.06,0,0,1,.93-1.14,4.16,4.16,0,0,1,1.38-.69A5.85,5.85,0,0,1,161.2,215.94Zm0,1.21a3.26,3.26,0,0,0-1,.17,3,3,0,0,0-.89.49,2.29,2.29,0,0,0-.63.78,2.1,2.1,0,0,0-.24,1,2.23,2.23,0,0,0,.24,1.05,2.26,2.26,0,0,0,.63.78,3.19,3.19,0,0,0,2.93.49,2.84,2.84,0,0,0,.89-.49,2.44,2.44,0,0,0,.64-.78,2.35,2.35,0,0,0,.23-1.05,2.31,2.31,0,0,0-.23-1,2.41,2.41,0,0,0-.64-.78,2.65,2.65,0,0,0-.89-.49A3.21,3.21,0,0,0,161.2,217.15Z" transform="translate(-33.01 -2.46)"/><path class="cls-2" d="M169.74,216.34c-.25,0-.36.08-.36.25v3.74a1.54,1.54,0,0,0,.57,1.26,2.75,2.75,0,0,0,1.75.48,2.68,2.68,0,0,0,1.74-.48,1.55,1.55,0,0,0,.57-1.26v-3.74c0-.17-.14-.25-.41-.25v-.29h2.26v.29c-.24,0-.35.08-.35.25v4.12a2.08,2.08,0,0,1-.24,1,2.2,2.2,0,0,1-.68.82,4,4,0,0,1-1.19.57,6.67,6.67,0,0,1-1.7.2,6.58,6.58,0,0,1-1.71-.2,3.3,3.3,0,0,1-1.19-.57,2.18,2.18,0,0,1-.68-.82,2.08,2.08,0,0,1-.24-1v-4.12a.2.2,0,0,0-.1-.19.68.68,0,0,0-.38-.06v-.29h2.34v.29Z" transform="translate(-33.01 -2.46)"/><path class="cls-2" d="M178.89,220.72a.66.66,0,0,1,0,.14.36.36,0,0,0,0,.15c0,.17.1.31.32.45a3.17,3.17,0,0,0,.74.34,6.93,6.93,0,0,0,.87.22,3.37,3.37,0,0,0,.68.08l.56,0a2.87,2.87,0,0,0,.66-.14,1.5,1.5,0,0,0,.55-.28.61.61,0,0,0,.24-.5.57.57,0,0,0-.4-.53,4.41,4.41,0,0,0-1-.25l-1.3-.18a7.09,7.09,0,0,1-1.3-.29,2.49,2.49,0,0,1-1-.59,1.42,1.42,0,0,1-.4-1.09,2,2,0,0,1,.86-1.67,4.17,4.17,0,0,1,2.44-.62,7,7,0,0,1,1.31.12,5.75,5.75,0,0,1,.92.27,6.61,6.61,0,0,1,.61.27.92.92,0,0,0,.36.12.37.37,0,0,0,.2,0,.54.54,0,0,1,.17-.09l.17.17-.81,1.54-.29-.1,0-.2a.33.33,0,0,0-.15-.2,2.5,2.5,0,0,0-1-.47,5.51,5.51,0,0,0-1.53-.2,3.12,3.12,0,0,0-.62,0,2.57,2.57,0,0,0-.53.13.79.79,0,0,0-.35.26.55.55,0,0,0-.13.38.53.53,0,0,0,.4.52,4.9,4.9,0,0,0,1,.24l1.3.18a5.37,5.37,0,0,1,1.3.3,2.5,2.5,0,0,1,1,.62,1.58,1.58,0,0,1,.4,1.12,1.86,1.86,0,0,1-.36,1.18,2.39,2.39,0,0,1-.88.72,3.51,3.51,0,0,1-1.15.35,10,10,0,0,1-1.18.08,5.86,5.86,0,0,1-1.1-.11c-.37-.08-.7-.16-1-.25a6.43,6.43,0,0,1-.76-.27,2.55,2.55,0,0,0-.38-.12.3.3,0,0,0-.2.1l-.23-.16.76-1.83Z" transform="translate(-33.01 -2.46)"/><path class="cls-2" d="M193.79,217.57c0-.21-.16-.31-.51-.31h-4v1.63h2.52a1.11,1.11,0,0,0,.41,0c.09,0,.13-.1.13-.22h.29v1.74h-.32c0-.13,0-.19-.14-.23a3.08,3.08,0,0,0-.51,0H189.3V222h4.18a.49.49,0,0,0,.32-.09.27.27,0,0,0,.14-.23h.29v1.71h-.29a.14.14,0,0,0-.14-.16,1.52,1.52,0,0,0-.32,0h-6v-.28a.39.39,0,0,0,.17-.06.21.21,0,0,0,.08-.19v-6.1a.23.23,0,0,0-.08-.19.24.24,0,0,0-.17-.06v-.29h5.79c.34,0,.51-.1.51-.28h.29v1.81h-.29Z" transform="translate(-33.01 -2.46)"/></svg>