<?xml version="1.0" encoding="utf-8"?>
<!-- Generator: Adobe Illustrator 23.0.3, SVG Export Plug-In . SVG Version: 6.00 Build 0)  -->
<svg version="1.1" id="圖層_1" xmlns="http://www.w3.org/2000/svg" xmlns:xlink="http://www.w3.org/1999/xlink" x="0px" y="0px"
	 viewBox="0 0 171.65 174.15" style="enable-background:new 0 0 171.65 174.15;" xml:space="preserve">
<style type="text/css">
	.st0{opacity:0.8;}
	.st1{fill:#69533C;}
</style>
<g>
	<g>
		<g>
			<g>
				<g>
					<g>
						<g class="st0">
							<g>
								<path class="st1" d="M160.07,77.44c-0.57-6.53-1.98-12.67-4.23-18.37c-1.07-2.87-2.43-5.59-3.86-8.25
									c-0.78-1.3-1.49-2.63-2.36-3.88l-1.26-1.89l-1.35-1.83c-5.61-7.57-12.08-13.96-19.62-19.17
									c-7.54-5.18-16.23-9.17-26.2-11.08c-9.86-1.91-19.43-1.68-29.02,0.42c-9.73,1.82-19.68,5.85-28.5,12.24
									c-8.8,6.38-16.53,15.01-21.76,25.22c-0.3,0.54-0.78,1.32-1.23,2.23c-0.44,0.91-0.92,1.93-1.32,2.86
									c-0.71,1.91-1.12,3.51-0.46,3.39c-4.2,10.18-6.03,21.24-5.39,32.14c0.62,10.88,3.8,21.59,9.38,30.85
									c2.27,3.92,4.72,7.86,7.53,11.58c2.81,3.71,6,7.19,9.56,10.07c2.94,2.29,5.94,4.46,9.06,6.44c3.14,1.94,6.36,3.75,9.7,5.31
									c3.36,1.51,6.79,2.87,10.33,3.89c3.54,0.97,7.15,1.79,10.81,2.13c1.02,0.08,2.65-0.04,4.22-0.06
									c1.57-0.04,3.09-0.19,3.94-0.11c10.05,0.67,19.85-1.37,28.54-5.21c8.72-3.85,16.37-9.43,22.95-15.99
									c5.2-5.15,8.58-9.7,12.35-15.53c-0.05-0.78,0.83-2.18,1.65-3.96c0.62-1.15,1.99-3.6,3.5-6.78c1.47-3.2,3-7.16,4.17-11.17
									c2.47-8.01,2.92-16.19,3.28-17.55c0.04-0.17,0.06,0.62,0.06,2.14c0.03,1.52-0.08,3.76-0.33,6.47
									c-0.53,5.42-1.94,12.74-4.68,19.64c-1.33,3.46-2.91,6.84-4.63,9.86c-0.81,1.54-1.74,2.94-2.57,4.3
									c-0.88,1.32-1.73,2.57-2.53,3.69c-3.26,4.48-5.79,7.08-5.49,7c0.62-0.32,7.58-7.63,12.3-16.73c2.4-4.5,4.32-9.31,5.52-13.23
									s1.8-6.91,2.03-7.73c-1.49,8.85-4.27,16.68-7.76,23.28c-3.42,6.65-7.51,12.07-11.52,16.55
									c-8.13,8.95-16.13,13.93-22.08,17.12c-1.51,0.76-2.88,1.5-4.16,2.04c-1.27,0.57-2.41,1.11-3.45,1.49
									c-1.03,0.4-1.93,0.78-2.72,1.07c-0.79,0.28-1.46,0.51-2.01,0.7c-2.19,0.78-2.48,0.87-1.27,0.59
									c0.59-0.18,1.56-0.46,2.83-0.83c1.27-0.37,2.81-0.99,4.6-1.64c3.54-1.43,7.95-3.51,12.53-6.39
									c4.57-2.88,9.31-6.51,13.54-10.76c4.24-4.23,8.01-9,10.98-13.75c4.01-5.71,8.45-14.84,11.33-27.94
									c-0.59,3.94-1.82,9.94-3.68,15.28c-1.81,5.35-4.11,10.01-5.17,11.67c-2.33,3.91-4.2,6.58-5.79,8.69
									c-1.56,2.13-2.87,3.69-4.25,5.29c-0.73,0.77-1.46,1.55-2.28,2.42c-0.85,0.83-1.81,1.7-2.91,2.71
									c-2.29,1.91-5.23,4.31-9.76,7.05c-3.72,2.22-8.23,4.63-13.3,6.7c-5.06,2.07-10.67,3.79-16.35,4.88
									c-5.68,1.1-11.41,1.56-16.63,1.49c-5.23-0.05-9.94-0.64-13.65-1.33c3.94,0.4,10.5,0.71,17.37,0.15
									c6.89-0.54,14.01-1.97,19.46-3.22c-5.99,1.17-10.71,1.73-14.82,2.14c-1.03,0.08-2.02,0.17-2.98,0.24
									c-0.96,0.1-1.9,0.17-2.82,0.2c-0.92,0.05-1.82,0.11-2.72,0.16c-0.9,0.02-1.78,0.04-2.67,0.06
									c-1.79,0.08-3.58-0.03-5.48-0.09c-0.95-0.05-1.91-0.16-2.92-0.26c-0.5-0.05-1.01-0.11-1.53-0.16
									c-0.52-0.08-1.04-0.17-1.58-0.26c-4.29-0.7-9.29-1.95-15.24-4.64c-2.22-0.97-4.81-2.09-7.54-3.45
									c-1.23-0.77-2.43-1.52-3.63-2.39c-0.61-0.42-1.23-0.86-1.87-1.31c-0.62-0.48-1.27-0.98-1.95-1.51
									c-8.66-6.3-15.74-13.64-21.37-21.96c-5.6-8.32-9.77-17.68-11.79-28.09c0.22,0.88,0.26,1.64,0.28,2.4
									c0.01,0.77,0.04,1.54,0.27,2.45c0.95,4.51,2.4,8.74,4.19,12.73c1.8,3.99,3.89,7.77,6.36,11.34
									c2.45,3.57,5.19,6.98,8.24,10.28c3.08,3.27,6.47,6.42,10.25,9.49c1.4,1.24,3.33,2.39,5.28,3.52c1,0.53,2,1.06,2.97,1.58
									c0.96,0.52,1.92,0.98,2.77,1.47c3.48,1.94,6.81,3.68,10.2,5.17c3.37,1.55,6.8,2.82,10.4,3.9
									c-7.32-1.46-15.11-4.32-22.32-8.51c-7.25-4.13-13.9-9.55-19.46-15.44c-1.19-1.19-2.5-2.52-3.8-3.74
									c-1.23-1.28-2.49-2.44-3.36-3.45c2.22,3.06,4.61,6.02,7.26,8.76c1.28,1.41,2.69,2.7,4.06,4.02c0.7,0.65,1.43,1.26,2.15,1.89
									s1.45,1.25,2.21,1.83c5.26,4.11,11.47,7.85,18.22,10.62c3.35,1.44,6.87,2.55,10.38,3.55c1.78,0.42,3.53,0.92,5.32,1.23
									c0.89,0.17,1.77,0.34,2.66,0.51c0.89,0.13,1.78,0.26,2.66,0.38c7.07,1.01,13.97,1.04,20.21,0.58
									c6.25-0.45,11.85-1.42,16.53-2.31c0.53-0.2,1.06-0.39,2.12-0.78c0.29-0.02,0.68-0.08,1.1-0.21
									c3.51-1.14,7.62-2.69,11.4-4.09c-3.1,1.41-6.25,2.73-9.5,3.77c-12.3,5.22-27.18,6.92-41.74,4.54
									c-14.61-2.31-28.68-8.83-40.25-17.85c-2.59-1.98-5.76-4.96-8.54-8.28c-2.8-3.29-5.39-6.74-7.31-9.35
									c-5.72-7.64-10.14-16.58-12.66-26.05C4.42,104,3.58,99.16,3.19,94.31c-0.36-4.85-0.27-9.69,0.2-14.43
									c0.82-8.56,2.94-16.97,6.26-24.81c1.62-3.94,3.62-7.7,5.83-11.31c1.08-1.82,2.31-3.54,3.51-5.28
									c1.28-1.68,2.53-3.37,3.92-4.95c10.91-12.9,25.56-22.18,41.38-26.42c15.81-4.28,32.64-3.53,47.57,1.74
									c14.96,5.25,27.95,15.04,36.92,27.37c0.88,1.11,1.81,2.19,2.62,3.33c-0.26-0.58-0.54-1.12-0.83-1.66
									c0.77,1.09,1.4,2.29,2.09,3.41c2.21,3.23,4.18,6.6,5.76,10.11c1.56,3.52,2.8,7.15,3.64,10.84c0.26,1.53-0.12,0.22-0.8-1.7
									c-0.17-0.48-0.35-1.01-0.53-1.54c-0.22-0.52-0.43-1.04-0.64-1.54c-0.43-0.99-0.81-1.89-1.17-2.38
									c0.33,0.79,0.57,1.61,0.79,2.21c0.21,0.6,0.35,1.01,0.35,1.01s-0.35-0.21-0.7-0.42c0.6,1.16,0.56,1.99,0.67,2.92
									c-1.34-3.9-3.01-7.69-4.97-11.34c-1.99-3.63-4.28-7.1-6.83-10.37c-5.08-6.56-11.32-12.25-18.28-16.85
									c0.64,0.77,1.93,1.9,3.32,2.96c1.35,1.13,2.79,2.22,3.63,3.03c4.28,3.42,8.19,7.36,11.06,11.46c2.15,2.74,4.1,5.68,5.72,8.8
									c0.87,1.53,1.55,3.16,2.29,4.74c0.65,1.63,1.34,3.24,1.87,4.91c0.6,1.64,1.03,3.33,1.51,4.98c0.22,0.84,0.39,1.68,0.59,2.52
									l0.29,1.25l0.23,1.26c0.69,3.34,1.01,6.7,1.3,9.98c-0.02,1.23-0.01,2.44-0.06,3.64c-0.1,1.2-0.19,2.39-0.28,3.56
									c-0.1,0.8-0.22,0.99-0.35,0.73c-0.06-0.13-0.12-0.37-0.18-0.7c-0.07-0.3-0.14-0.68-0.2-1.12c-0.14-0.87-0.21-1.99-0.35-3.17
									C160.21,79.91,160.16,78.64,160.07,77.44z M9.79,62.52c1.72-4.74,3.9-9.12,6.53-13.42c0.43-0.77,0.85-1.55,1.27-2.32
									c0.46-0.75,0.93-1.5,1.39-2.25c0.56-0.94,1.2-1.87,1.82-2.85c0.31-0.49,0.62-0.99,0.93-1.5c0.33-0.5,0.66-1,1-1.5
									c5.79-7.45,12.8-13.8,20.68-18.71c-4.09,2.23-8.1,4.92-11.98,8.28s-7.63,7.39-11.04,12.34c8.64-12.93,20.57-22,33.32-27.3
									c6.41-2.63,13.04-4.37,19.74-5.23c6.71-0.81,13.49-0.88,20.23-0.03c4.09,0.33,8.16,1.09,12.19,2.07
									c4.03,0.99,8.01,2.3,11.88,3.96c5.5,2.25,10.64,5.03,15.4,8.27c-7.21-5.5-15.38-9.84-24.14-12.56
									c-8.75-2.71-18.04-4.01-27.34-3.58C72.4,6.6,63.08,8.58,54.36,12.25c-8.72,3.65-16.87,8.87-23.94,15.41
									C16.3,40.71,6.7,59.24,4.75,79.13C2.54,98.93,8,119.9,20.18,136.5C5.24,114.48,1.37,86.83,9.79,62.52z M8.4,71.71
									c-1.8,9.98-1.67,20.19,0.32,29.91c1.29,6.62,3.45,13.24,6.4,19.42c3,6.15,6.71,11.88,10.92,16.79
									c4.21,4.91,8.84,9.05,13.43,12.29c4.59,3.25,9.13,5.6,13.16,7.16c-5.29-2.51-10.37-5.63-15.1-9.31
									c-4.72-3.7-9.06-7.99-12.91-12.75c-7.74-9.5-13.29-21.12-15.89-33.59c0.32,1.48,0.61,2.8,0.87,3.97
									c0.31,1.15,0.59,2.16,0.82,3.01c0.45,1.72,0.9,2.82,1.08,3.42c0.4,1.19,0.12,0.3-0.71-2.27c-0.72-2.6-1.97-6.93-2.74-12.71
									C7.29,91.28,6.91,84.06,7.88,76c0.02-0.37,0.07-0.96,0.16-1.69C8.09,73.56,8.21,72.68,8.4,71.71z"/>
								<path class="st1" d="M121.45,12.17c9.68,5.23,18.31,12.42,24.85,20.87c-2.2-3.48-4.32-6.52-7.75-10.06
									c-0.6-0.57-1.21-1.15-1.82-1.73c-0.64-0.55-1.29-1.09-1.95-1.65c-1.29-1.13-2.73-2.1-4.14-3.16
									c-2.92-1.95-5.98-3.84-9.25-5.4c-0.8-0.42-1.63-0.79-2.46-1.15s-1.66-0.75-2.5-1.08c-1.7-0.64-3.39-1.34-5.13-1.87
									c-3.44-1.19-6.97-2.04-10.47-2.81C90.76,2.01,80.08,1.89,69.57,3.86C59.07,5.84,48.78,10,39.61,16.12
									c-9.18,6.11-17.24,14.16-23.45,23.61C9.94,49.16,5.6,60,3.63,71.36c-0.27,1.11-0.49,2.92-0.77,4.91
									c-0.11,1-0.17,2.05-0.24,3.09c-0.03,0.52-0.05,1.03-0.08,1.53c0.01,0.5,0.01,0.99,0.02,1.47C3.4,67.85,8,53.88,15.48,42.06
									c3.7-5.94,8.2-11.29,13.15-16.07c4.98-4.75,10.54-8.82,16.43-12.19c5.92-3.33,12.21-5.9,18.67-7.69
									C70.2,4.34,76.86,3.44,83.49,3.3c6.63-0.15,13.23,0.58,19.63,2.07C109.51,6.86,115.69,9.13,121.45,12.17z"/>
								<path class="st1" d="M29.23,149.86c3.24,2.82,6.63,5.44,10.16,7.77c3.55,2.3,7.15,4.42,10.82,6.23
									c-3.22-1.87-6.92-4.22-10.54-6.8c-3.63-2.58-7.09-5.53-10.04-8.29c-8.38-7.7-15.23-17.09-19.9-27.36
									C13.99,131.85,20.5,141.66,29.23,149.86z"/>
								<path class="st1" d="M2.56,82.36c-0.05,1.16-0.14,2.31-0.15,3.48c0,1.16,0,2.33,0,3.51c0.2,10.76,2.66,21.84,7.33,32.07
									c-4.5-11.03-6.51-22.77-6.26-34.46c-0.27,0-0.48-0.48-0.66-1.3C2.66,84.84,2.6,83.68,2.56,82.36z"/>
							</g>
						</g>
					</g>
				</g>
			</g>
		</g>
		<g>
			<g>
				<g>
					<g>
						<g class="st0">
							<g>
								<path class="st1" d="M160.07,77.44c-0.57-6.53-1.98-12.67-4.23-18.37c-1.07-2.87-2.43-5.59-3.86-8.25
									c-0.78-1.3-1.49-2.63-2.36-3.88l-1.26-1.89l-1.35-1.83c-5.61-7.57-12.08-13.96-19.62-19.17
									c-7.54-5.18-16.23-9.17-26.2-11.08c-9.86-1.91-19.43-1.68-29.02,0.42c-9.73,1.82-19.68,5.85-28.5,12.24
									c-8.8,6.38-16.53,15.01-21.76,25.22c-0.3,0.54-0.78,1.32-1.23,2.23c-0.44,0.91-0.92,1.93-1.32,2.86
									c-0.71,1.91-1.12,3.51-0.46,3.39c-4.2,10.18-6.03,21.24-5.39,32.14c0.62,10.88,3.8,21.59,9.38,30.85
									c2.27,3.92,4.72,7.86,7.53,11.58c2.81,3.71,6,7.19,9.56,10.07c2.94,2.29,5.94,4.46,9.06,6.44c3.14,1.94,6.36,3.75,9.7,5.31
									c3.36,1.51,6.79,2.87,10.33,3.89c3.54,0.97,7.15,1.79,10.81,2.13c1.02,0.08,2.65-0.04,4.22-0.06
									c1.57-0.04,3.09-0.19,3.94-0.11c10.05,0.67,19.85-1.37,28.54-5.21c8.72-3.85,16.37-9.43,22.95-15.99
									c5.2-5.15,8.58-9.7,12.35-15.53c-0.05-0.78,0.83-2.18,1.65-3.96c0.62-1.15,1.99-3.6,3.5-6.78c1.47-3.2,3-7.16,4.17-11.17
									c2.47-8.01,2.92-16.19,3.28-17.55c0.04-0.17,0.06,0.62,0.06,2.14c0.03,1.52-0.08,3.76-0.33,6.47
									c-0.53,5.42-1.94,12.74-4.68,19.64c-1.33,3.46-2.91,6.84-4.63,9.86c-0.81,1.54-1.74,2.94-2.57,4.3
									c-0.88,1.32-1.73,2.57-2.53,3.69c-3.26,4.48-5.79,7.08-5.49,7c0.62-0.32,7.58-7.63,12.3-16.73c2.4-4.5,4.32-9.31,5.52-13.23
									s1.8-6.91,2.03-7.73c-1.49,8.85-4.27,16.68-7.76,23.28c-3.42,6.65-7.51,12.07-11.52,16.55
									c-8.13,8.95-16.13,13.93-22.08,17.12c-1.51,0.76-2.88,1.5-4.16,2.04c-1.27,0.57-2.41,1.11-3.45,1.49
									c-1.03,0.4-1.93,0.78-2.72,1.07c-0.79,0.28-1.46,0.51-2.01,0.7c-2.19,0.78-2.48,0.87-1.27,0.59
									c0.59-0.18,1.56-0.46,2.83-0.83c1.27-0.37,2.81-0.99,4.6-1.64c3.54-1.43,7.95-3.51,12.53-6.39
									c4.57-2.88,9.31-6.51,13.54-10.76c4.24-4.23,8.01-9,10.98-13.75c4.01-5.71,8.45-14.84,11.33-27.94
									c-0.59,3.94-1.82,9.94-3.68,15.28c-1.81,5.35-4.11,10.01-5.17,11.67c-2.33,3.91-4.2,6.58-5.79,8.69
									c-1.56,2.13-2.87,3.69-4.25,5.29c-0.73,0.77-1.46,1.55-2.28,2.42c-0.85,0.83-1.81,1.7-2.91,2.71
									c-2.29,1.91-5.23,4.31-9.76,7.05c-3.72,2.22-8.23,4.63-13.3,6.7c-5.06,2.07-10.67,3.79-16.35,4.88
									c-5.68,1.1-11.41,1.56-16.63,1.49c-5.23-0.05-9.94-0.64-13.65-1.33c3.94,0.4,10.5,0.71,17.37,0.15
									c6.89-0.54,14.01-1.97,19.46-3.22c-5.99,1.17-10.71,1.73-14.82,2.14c-1.03,0.08-2.02,0.17-2.98,0.24
									c-0.96,0.1-1.9,0.17-2.82,0.2c-0.92,0.05-1.82,0.11-2.72,0.16c-0.9,0.02-1.78,0.04-2.67,0.06
									c-1.79,0.08-3.58-0.03-5.48-0.09c-0.95-0.05-1.91-0.16-2.92-0.26c-0.5-0.05-1.01-0.11-1.53-0.16
									c-0.52-0.08-1.04-0.17-1.58-0.26c-4.29-0.7-9.29-1.95-15.24-4.64c-2.22-0.97-4.81-2.09-7.54-3.45
									c-1.23-0.77-2.43-1.52-3.63-2.39c-0.61-0.42-1.23-0.86-1.87-1.31c-0.62-0.48-1.27-0.98-1.95-1.51
									c-8.66-6.3-15.74-13.64-21.37-21.96c-5.6-8.32-9.77-17.68-11.79-28.09c0.22,0.88,0.26,1.64,0.28,2.4
									c0.01,0.77,0.04,1.54,0.27,2.45c0.95,4.51,2.4,8.74,4.19,12.73c1.8,3.99,3.89,7.77,6.36,11.34
									c2.45,3.57,5.19,6.98,8.24,10.28c3.08,3.27,6.47,6.42,10.25,9.49c1.4,1.24,3.33,2.39,5.28,3.52c1,0.53,2,1.06,2.97,1.58
									c0.96,0.52,1.92,0.98,2.77,1.47c3.48,1.94,6.81,3.68,10.2,5.17c3.37,1.55,6.8,2.82,10.4,3.9
									c-7.32-1.46-15.11-4.32-22.32-8.51c-7.25-4.13-13.9-9.55-19.46-15.44c-1.19-1.19-2.5-2.52-3.8-3.74
									c-1.23-1.28-2.49-2.44-3.36-3.45c2.22,3.06,4.61,6.02,7.26,8.76c1.28,1.41,2.69,2.7,4.06,4.02c0.7,0.65,1.43,1.26,2.15,1.89
									s1.45,1.25,2.21,1.83c5.26,4.11,11.47,7.85,18.22,10.62c3.35,1.44,6.87,2.55,10.38,3.55c1.78,0.42,3.53,0.92,5.32,1.23
									c0.89,0.17,1.77,0.34,2.66,0.51c0.89,0.13,1.78,0.26,2.66,0.38c7.07,1.01,13.97,1.04,20.21,0.58
									c6.25-0.45,11.85-1.42,16.53-2.31c0.53-0.2,1.06-0.39,2.12-0.78c0.29-0.02,0.68-0.08,1.1-0.21
									c3.51-1.14,7.62-2.69,11.4-4.09c-3.1,1.41-6.25,2.73-9.5,3.77c-12.3,5.22-27.18,6.92-41.74,4.54
									c-14.61-2.31-28.68-8.83-40.25-17.85c-2.59-1.98-5.76-4.96-8.54-8.28c-2.8-3.29-5.39-6.74-7.31-9.35
									c-5.72-7.64-10.14-16.58-12.66-26.05C4.42,104,3.58,99.16,3.19,94.31c-0.36-4.85-0.27-9.69,0.2-14.43
									c0.82-8.56,2.94-16.97,6.26-24.81c1.62-3.94,3.62-7.7,5.83-11.31c1.08-1.82,2.31-3.54,3.51-5.28
									c1.28-1.68,2.53-3.37,3.92-4.95c10.91-12.9,25.56-22.18,41.38-26.42c15.81-4.28,32.64-3.53,47.57,1.74
									c14.96,5.25,27.95,15.04,36.92,27.37c0.88,1.11,1.81,2.19,2.62,3.33c-0.26-0.58-0.54-1.12-0.83-1.66
									c0.77,1.09,1.4,2.29,2.09,3.41c2.21,3.23,4.18,6.6,5.76,10.11c1.56,3.52,2.8,7.15,3.64,10.84c0.26,1.53-0.12,0.22-0.8-1.7
									c-0.17-0.48-0.35-1.01-0.53-1.54c-0.22-0.52-0.43-1.04-0.64-1.54c-0.43-0.99-0.81-1.89-1.17-2.38
									c0.33,0.79,0.57,1.61,0.79,2.21c0.21,0.6,0.35,1.01,0.35,1.01s-0.35-0.21-0.7-0.42c0.6,1.16,0.56,1.99,0.67,2.92
									c-1.34-3.9-3.01-7.69-4.97-11.34c-1.99-3.63-4.28-7.1-6.83-10.37c-5.08-6.56-11.32-12.25-18.28-16.85
									c0.64,0.77,1.93,1.9,3.32,2.96c1.35,1.13,2.79,2.22,3.63,3.03c4.28,3.42,8.19,7.36,11.06,11.46c2.15,2.74,4.1,5.68,5.72,8.8
									c0.87,1.53,1.55,3.16,2.29,4.74c0.65,1.63,1.34,3.24,1.87,4.91c0.6,1.64,1.03,3.33,1.51,4.98c0.22,0.84,0.39,1.68,0.59,2.52
									l0.29,1.25l0.23,1.26c0.69,3.34,1.01,6.7,1.3,9.98c-0.02,1.23-0.01,2.44-0.06,3.64c-0.1,1.2-0.19,2.39-0.28,3.56
									c-0.1,0.8-0.22,0.99-0.35,0.73c-0.06-0.13-0.12-0.37-0.18-0.7c-0.07-0.3-0.14-0.68-0.2-1.12c-0.14-0.87-0.21-1.99-0.35-3.17
									C160.21,79.91,160.16,78.64,160.07,77.44z M9.79,62.52c1.72-4.74,3.9-9.12,6.53-13.42c0.43-0.77,0.85-1.55,1.27-2.32
									c0.46-0.75,0.93-1.5,1.39-2.25c0.56-0.94,1.2-1.87,1.82-2.85c0.31-0.49,0.62-0.99,0.93-1.5c0.33-0.5,0.66-1,1-1.5
									c5.79-7.45,12.8-13.8,20.68-18.71c-4.09,2.23-8.1,4.92-11.98,8.28s-7.63,7.39-11.04,12.34c8.64-12.93,20.57-22,33.32-27.3
									c6.41-2.63,13.04-4.37,19.74-5.23c6.71-0.81,13.49-0.88,20.23-0.03c4.09,0.33,8.16,1.09,12.19,2.07
									c4.03,0.99,8.01,2.3,11.88,3.96c5.5,2.25,10.64,5.03,15.4,8.27c-7.21-5.5-15.38-9.84-24.14-12.56
									c-8.75-2.71-18.04-4.01-27.34-3.58C72.4,6.6,63.08,8.58,54.36,12.25c-8.72,3.65-16.87,8.87-23.94,15.41
									C16.3,40.71,6.7,59.24,4.75,79.13C2.54,98.93,8,119.9,20.18,136.5C5.24,114.48,1.37,86.83,9.79,62.52z M8.4,71.71
									c-1.8,9.98-1.67,20.19,0.32,29.91c1.29,6.62,3.45,13.24,6.4,19.42c3,6.15,6.71,11.88,10.92,16.79
									c4.21,4.91,8.84,9.05,13.43,12.29c4.59,3.25,9.13,5.6,13.16,7.16c-5.29-2.51-10.37-5.63-15.1-9.31
									c-4.72-3.7-9.06-7.99-12.91-12.75c-7.74-9.5-13.29-21.12-15.89-33.59c0.32,1.48,0.61,2.8,0.87,3.97
									c0.31,1.15,0.59,2.16,0.82,3.01c0.45,1.72,0.9,2.82,1.08,3.42c0.4,1.19,0.12,0.3-0.71-2.27c-0.72-2.6-1.97-6.93-2.74-12.71
									C7.29,91.28,6.91,84.06,7.88,76c0.02-0.37,0.07-0.96,0.16-1.69C8.09,73.56,8.21,72.68,8.4,71.71z"/>
								<path class="st1" d="M121.45,12.17c9.68,5.23,18.31,12.42,24.85,20.87c-2.2-3.48-4.32-6.52-7.75-10.06
									c-0.6-0.57-1.21-1.15-1.82-1.73c-0.64-0.55-1.29-1.09-1.95-1.65c-1.29-1.13-2.73-2.1-4.14-3.16
									c-2.92-1.95-5.98-3.84-9.25-5.4c-0.8-0.42-1.63-0.79-2.46-1.15s-1.66-0.75-2.5-1.08c-1.7-0.64-3.39-1.34-5.13-1.87
									c-3.44-1.19-6.97-2.04-10.47-2.81C90.76,2.01,80.08,1.89,69.57,3.86C59.07,5.84,48.78,10,39.61,16.12
									c-9.18,6.11-17.24,14.16-23.45,23.61C9.94,49.16,5.6,60,3.63,71.36c-0.27,1.11-0.49,2.92-0.77,4.91
									c-0.11,1-0.17,2.05-0.24,3.09c-0.03,0.52-0.05,1.03-0.08,1.53c0.01,0.5,0.01,0.99,0.02,1.47C3.4,67.85,8,53.88,15.48,42.06
									c3.7-5.94,8.2-11.29,13.15-16.07c4.98-4.75,10.54-8.82,16.43-12.19c5.92-3.33,12.21-5.9,18.67-7.69
									C70.2,4.34,76.86,3.44,83.49,3.3c6.63-0.15,13.23,0.58,19.63,2.07C109.51,6.86,115.69,9.13,121.45,12.17z"/>
								<path class="st1" d="M29.23,149.86c3.24,2.82,6.63,5.44,10.16,7.77c3.55,2.3,7.15,4.42,10.82,6.23
									c-3.22-1.87-6.92-4.22-10.54-6.8c-3.63-2.58-7.09-5.53-10.04-8.29c-8.38-7.7-15.23-17.09-19.9-27.36
									C13.99,131.85,20.5,141.66,29.23,149.86z"/>
								<path class="st1" d="M2.56,82.36c-0.05,1.16-0.14,2.31-0.15,3.48c0,1.16,0,2.33,0,3.51c0.2,10.76,2.66,21.84,7.33,32.07
									c-4.5-11.03-6.51-22.77-6.26-34.46c-0.27,0-0.48-0.48-0.66-1.3C2.66,84.84,2.6,83.68,2.56,82.36z"/>
							</g>
						</g>
					</g>
				</g>
			</g>
		</g>
		<path class="st1" d="M141.28,123.64c-0.82-1.13-1.85-1.71-3.09-1.76c-1.07-0.04-1.95,0.25-2.64,0.86
			c-0.68,0.62-1.05,1.48-1.09,2.6c-0.03,0.79,0.2,1.85,0.68,3.2c0.52,1.43,0.77,2.54,0.74,3.32c-0.05,1.24-0.64,2.33-1.77,3.26
			s-2.48,1.37-4.05,1.31c-1.61-0.06-4.4-0.64-8.36-1.75c-0.78-0.21-1.5-0.41-2.2-0.59l-21.32-33.71c6.06-3.2,11.39-7.73,15.94-13.66
			c5.71-7.43,8.56-15.59,8.56-24.46c0-2.44-0.27-4.77-0.81-7c1.42,0.67,3.23,1.73,5.47,3.25c2.47,1.73,4.57,2.6,6.29,2.6
			c1.32,0,2.46-0.38,3.41-1.13c0.95-0.76,1.42-1.67,1.42-2.73c0-1.91-1.55-3.75-4.66-5.53s-6.93-2.67-11.47-2.67
			c-0.91,0-1.81,0.03-2.72,0.1c-2.05-3.97-5.12-7.54-9.22-10.71c-8.2-6.32-19.21-9.48-33.05-9.48c-7.98,0-15.43,1.05-22.37,3.12
			l-0.02-0.03l-0.59,0.2c-1.06,0.33-2.11,0.67-3.15,1.05l0,0l-0.87,0.29L55.67,42c-1.12,0.42-2.23,0.86-3.31,1.34
			c-9.17,4.07-16.33,9.55-21.47,16.43s-7.71,14-7.71,21.38c0,4.41,1.71,8.72,5.13,12.92c2.52,3,5.11,4.5,7.78,4.5
			c1.21,0,2.28-0.4,3.21-1.19s1.4-1.7,1.4-2.73c0-0.81-0.24-1.5-0.71-2.06c-0.48-0.56-1.52-1.22-3.12-1.99
			c-5.61-2.57-8.42-6.6-8.42-12.09c0-5.61,2.29-11.39,6.87-17.33s10.81-10.7,18.67-14.3c1.25-0.57,2.51-1.07,3.78-1.55l8.02,12.68
			l-5.86,20.43l-5.18,16.78c-2.5,6.6-4.48,10.89-5.93,12.86c-0.8,1.12-1.77,1.91-2.89,2.38c-1.13,0.47-3.99,0.81-8.6,1.03
			l-1.73,3.15c4.61-0.13,8.04-0.19,10.29-0.19c4.86,0,9.99,0.17,15.4,0.51c6.41,0.43,10.92,0.64,13.52,0.64
			c0.67,0,1.34-0.03,2.01-0.05c-1.64,4.86-3.03,8.32-4.13,10.32c-1.64,2.96-3.48,5.01-5.52,6.16c-2.04,1.16-6.08,2.18-12.12,3.07
			l-1.04,3.6c6.5-0.76,13.98-1.13,22.43-1.13c5.75,0,17.94,0.64,36.58,1.93c0.33,0.02,0.65,0.04,0.97,0.07
			c0.56,0.07,1.12,0.14,1.7,0.22c3.94,0.52,7.17,0.83,9.69,0.93c5.07,0.2,9.14-0.95,12.21-3.43s4.67-5.52,4.81-9.11
			C142.48,126.28,142.1,124.76,141.28,123.64z M69.99,55.81l0.19-0.68c1.39-5.08,2.97-9.69,4.72-13.86
			c17.64-1.06,23.19,9.69,24.8,14.66c-6.21,3.9-11.46,9.55-15.75,16.99c-0.46,0.82-0.94,1.74-1.42,2.72L69.99,55.81z M94,102.65
			l1.83,2.9c-0.88,0.51-1.77,1.01-2.7,1.46c-0.23,0.11-0.47,0.21-0.7,0.31C92.93,105.85,93.46,104.28,94,102.65z M108.78,64.96
			c0,7.29-1.92,13.95-5.75,19.99c-2.36,3.72-5.23,6.87-8.6,9.49l-3.97-6.28c2.38-7,4.36-12.14,5.96-15.39
			c2.76-5.38,5.41-9.43,7.97-12.16c1.23-1.31,2.42-2.41,3.58-3.32C108.49,59.7,108.78,62.25,108.78,64.96z M73.47,33.2
			c10.52,0,19.03,2.9,25.54,8.71c3.35,2.99,5.83,6.49,7.45,10.47c-1.49,0.63-2.98,1.37-4.47,2.18c-4.23-12.3-16.07-15.4-26.11-15.63
			v-0.01c-0.01,0-0.03,0.01-0.04,0.01c-7.48-0.17-13.95,1.24-15.52,1.61l-3.23-5.11C62.36,33.96,67.81,33.2,73.47,33.2z
			 M78.23,111.24c-2.56,0.32-5.22,0.5-8.01,0.5c-3.31,0-7.11-0.36-11.42-1.09c4.46-6.6,8.47-16.37,12.02-29.32l2.95-10.68
			l11.48,18.17c0.13,0.22,0.26,0.43,0.4,0.65c-1.97,4.84-4.07,10.86-6.28,18.1C78.98,108.86,78.6,110.08,78.23,111.24z M85.33,125.5
			c1.28-2.48,2.9-6.43,4.86-11.82c2.95-0.73,5.89-1.66,8.84-2.81c0.04-0.02,0.08-0.04,0.13-0.05l13.6,21.52
			c-2.18-0.35-3.91-0.59-5.17-0.73c-2.59-0.29-5.41-0.43-8.45-0.43c-4.89,0-11.45,0.69-19.67,2.07
			C81.76,131.19,83.72,128.61,85.33,125.5z"/>
	</g>
</g>
</svg>
